<?xml version="1.0" standalone="no"?>
<!DOCTYPE svg PUBLIC "-//W3C//DTD SVG 20010904//EN"
 "http://www.w3.org/TR/2001/REC-SVG-20010904/DTD/svg10.dtd">
<svg version="1.0" xmlns="http://www.w3.org/2000/svg"
 width="512.000000pt" height="512.000000pt" viewBox="0 0 512.000000 512.000000"
 preserveAspectRatio="xMidYMid meet">

<g transform="translate(0.000000,512.000000) scale(0.100000,-0.100000)"
fill="#000000" stroke="none">
<path d="M2344 4851 c-85 -10 -108 -21 -122 -58 -7 -15 -36 -136 -67 -268 -30
-132 -59 -246 -63 -254 -6 -11 -117 -56 -258 -103 -30 -10 -38 -5 -253 156
-166 125 -229 166 -250 166 -38 0 -151 -76 -289 -195 -129 -110 -189 -174
-198 -211 -6 -23 16 -73 119 -281 l127 -253 -44 -67 c-24 -38 -58 -96 -75
-130 -17 -35 -37 -63 -44 -63 -87 0 -545 -33 -558 -41 -28 -14 -44 -53 -72
-169 -46 -189 -72 -404 -55 -452 12 -35 18 -38 309 -162 l227 -97 6 -63 c4
-34 16 -100 26 -146 l19 -85 -77 -75 c-42 -42 -135 -130 -207 -196 -120 -113
-129 -124 -129 -158 0 -83 249 -509 313 -536 28 -11 53 -5 297 69 l267 80 33
-27 c17 -15 58 -49 91 -77 32 -27 70 -59 85 -70 l28 -20 -30 -245 c-33 -270
-35 -312 -19 -342 15 -28 177 -102 352 -160 192 -63 225 -68 261 -37 14 13 91
122 169 242 l143 219 154 0 154 0 143 -219 c78 -120 154 -229 169 -242 36 -31
69 -26 261 37 175 58 337 132 352 160 16 30 14 72 -19 342 l-30 245 28 20 c15
11 53 43 85 70 33 28 74 62 91 77 l33 27 267 -80 c244 -74 269 -80 297 -69 64
27 313 453 313 536 0 34 -9 45 -134 163 -74 69 -167 157 -207 196 l-72 70 19
85 c10 46 22 112 26 147 l6 62 217 92 c289 123 307 132 319 167 17 49 -12 276
-60 472 -23 97 -40 135 -67 149 -13 8 -471 41 -558 41 -7 0 -27 28 -44 63 -17
34 -51 92 -75 130 l-44 67 127 253 c105 211 125 258 119 282 -20 80 -410 405
-486 405 -22 0 -84 -41 -252 -167 l-222 -166 -46 17 c-25 9 -85 31 -135 48
-49 17 -95 36 -101 42 -6 6 -37 124 -69 261 -32 138 -64 262 -71 277 -9 17
-27 31 -52 38 -47 14 -404 21 -498 11z m358 -177 l45 -6 57 -247 c31 -135 63
-260 71 -278 13 -29 24 -35 132 -68 65 -21 158 -55 208 -76 49 -21 98 -39 108
-39 28 0 48 13 265 176 l205 154 31 -22 c57 -40 131 -101 193 -161 l62 -60
-125 -245 c-95 -185 -124 -250 -120 -268 4 -13 33 -65 66 -115 33 -50 81 -134
107 -186 38 -76 54 -99 78 -108 18 -8 136 -18 288 -26 255 -12 259 -13 268
-36 14 -38 49 -235 52 -292 l2 -54 -248 -107 c-236 -102 -276 -125 -277 -160
-2 -52 -32 -242 -51 -317 -12 -50 -19 -100 -16 -115 4 -15 85 -98 207 -213
l200 -187 -46 -87 c-38 -69 -126 -214 -139 -229 -2 -2 -117 31 -255 72 -138
42 -265 76 -281 76 -23 0 -48 -17 -113 -79 -46 -43 -122 -107 -169 -142 -51
-37 -90 -74 -95 -89 -8 -21 25 -347 52 -527 4 -31 2 -34 -42 -54 -67 -30 -271
-99 -292 -99 -11 0 -62 70 -155 213 -75 116 -147 221 -159 232 -20 19 -35 20
-258 20 -169 -1 -240 -4 -250 -13 -8 -7 -79 -111 -158 -232 -92 -143 -148
-220 -159 -220 -24 0 -206 62 -280 95 -54 25 -60 30 -56 54 13 72 55 455 55
493 0 54 -6 61 -100 130 -41 30 -114 92 -162 136 -68 64 -94 82 -117 82 -16 0
-140 -34 -276 -75 -137 -41 -251 -75 -254 -75 -8 0 -100 146 -151 241 l-41 77
201 187 c122 115 203 198 207 213 3 14 -3 64 -15 111 -24 100 -38 179 -47 272
-4 44 -13 73 -25 86 -10 11 -127 67 -260 124 -133 57 -244 109 -247 115 -6 17
24 218 45 295 l17 64 260 14 c153 8 272 18 290 26 24 9 40 32 78 108 26 52 74
136 107 186 33 50 62 102 66 115 4 18 -25 84 -120 269 l-126 245 60 58 c85 81
222 184 235 176 5 -3 98 -72 205 -152 209 -157 229 -170 258 -170 10 0 59 18
109 39 50 22 143 56 207 76 107 33 118 39 131 68 8 18 40 143 71 279 l57 247
31 4 c53 7 251 7 298 1z"/>
<path d="M2463 3499 c-336 -31 -645 -252 -789 -563 -220 -478 -14 -1051 461
-1281 382 -186 831 -106 1122 199 164 171 251 358 272 584 26 283 -66 551
-259 756 -214 227 -497 334 -807 305z m292 -200 c218 -53 413 -209 515 -414
59 -118 81 -217 81 -355 0 -191 -59 -362 -176 -502 -155 -189 -370 -290 -615
-290 -138 0 -236 23 -355 82 -273 137 -437 403 -437 710 0 521 476 892 987
769z"/>
</g>
</svg>
