<svg width="512" height="512" xmlns="http://www.w3.org/2000/svg" preserveAspectRatio="xMidYMid meet" version="1.0">

 <g>
  <title>Layer 1</title>
  <path stroke-width="0" stroke="#000" fill="#fff" id="svg_2" d="m234.4,26.89999c-8.5,1 -10.8,2.1 -12.2,5.8c-0.7,1.5 -3.6,13.6 -6.7,26.8c-3,13.2 -5.9,24.6 -6.3,25.4c-0.6,1.1 -11.7,5.6 -25.8,10.3c-3,1 -3.8,0.5 -25.3,-15.6c-16.6,-12.5 -22.9,-16.6 -25,-16.6c-3.8,0 -15.1,7.6 -28.9,19.5c-12.9,11 -18.9,17.4 -19.8,21.1c-0.6,2.3 1.6,7.3 11.9,28.1l12.7,25.3l-4.4,6.7c-2.4,3.8 -5.8,9.6 -7.5,13c-1.7,3.5 -3.7,6.3 -4.4,6.3c-8.7,0 -54.5,3.3 -55.8,4.1c-2.8,1.4 -4.4,5.3 -7.2,16.9c-4.6,18.9 -7.2,40.4 -5.5,45.2c1.2,3.5 1.8,3.8 30.9,16.2l22.7,9.7l0.6,6.3c0.4,3.4 1.6,10 2.6,14.6l1.9,8.5l-7.7,7.5c-4.2,4.2 -13.5,13 -20.7,19.6c-12,11.3 -12.9,12.4 -12.9,15.8c0,8.3 24.9,50.9 31.3,53.6c2.8,1.1 5.3,0.5 29.7,-6.9l26.7,-8l3.3,2.7c1.7,1.5 5.8,4.9 9.1,7.7c3.2,2.7 7,5.9 8.5,7l2.8,2l-3,24.5c-3.3,27 -3.5,31.2 -1.9,34.2c1.5,2.8 17.7,10.2 35.2,16c19.2,6.3 22.5,6.8 26.1,3.7c1.4,-1.3 9.1,-12.2 16.9,-24.2l14.3,-21.9l15.4,0l15.4,0l14.3,21.9c7.8,12 15.4,22.9 16.9,24.2c3.6,3.1 6.9,2.6 26.1,-3.7c17.5,-5.8 33.7,-13.2 35.2,-16c1.6,-3 1.4,-7.2 -1.9,-34.2l-3,-24.5l2.8,-2c1.5,-1.1 5.3,-4.3 8.5,-7c3.3,-2.8 7.4,-6.2 9.1,-7.7l3.3,-2.7l26.7,8c24.4,7.4 26.9,8 29.7,6.9c6.4,-2.7 31.3,-45.3 31.3,-53.6c0,-3.4 -0.9,-4.5 -13.4,-16.3c-7.4,-6.9 -16.7,-15.7 -20.7,-19.6l-7.2,-7l1.9,-8.5c1,-4.6 2.2,-11.2 2.6,-14.7l0.6,-6.2l21.7,-9.2c28.9,-12.3 30.7,-13.2 31.9,-16.7c1.7,-4.9 -1.2,-27.6 -6,-47.2c-2.3,-9.7 -4,-13.5 -6.7,-14.9c-1.3,-0.8 -47.1,-4.1 -55.8,-4.1c-0.7,0 -2.7,-2.8 -4.4,-6.3c-1.7,-3.4 -5.1,-9.2 -7.5,-13l-4.4,-6.7l12.7,-25.3c10.5,-21.1 12.5,-25.8 11.9,-28.2c-2,-8 -41,-40.5 -48.6,-40.5c-2.2,0 -8.4,4.1 -25.2,16.7l-22.2,16.6l-4.6,-1.7c-2.5,-0.9 -8.5,-3.1 -13.5,-4.8c-4.9,-1.7 -9.5,-3.6 -10.1,-4.2c-0.6,-0.6 -3.7,-12.4 -6.9,-26.1c-3.2,-13.8 -6.4,-26.2 -7.1,-27.7c-0.9,-1.7 -2.7,-3.1 -5.2,-3.8c-4.7,-1.4 -40.4,-2.1 -49.8,-1.1zm35.8,17.7l4.5,0.6l5.7,24.7c3.1,13.5 6.3,26 7.1,27.8c1.3,2.9 2.4,3.5 13.2,6.8c6.5,2.1 15.8,5.5 20.8,7.6c4.9,2.1 9.8,3.9 10.8,3.9c2.8,0 4.8,-1.3 26.5,-17.6l20.5,-15.4l3.1,2.2c5.7,4 13.1,10.1 19.3,16.1l6.2,6l-12.5,24.5c-9.5,18.5 -12.4,25 -12,26.8c0.4,1.3 3.3,6.5 6.6,11.5c3.3,5 8.1,13.4 10.7,18.6c3.8,7.6 5.4,9.9 7.8,10.8c1.8,0.8 13.6,1.8 28.8,2.6c25.5,1.2 25.9,1.3 26.8,3.6c1.4,3.8 4.9,23.5 5.2,29.2l0.2,5.4l-24.8,10.7c-23.6,10.2 -27.6,12.5 -27.7,16c-0.2,5.2 -3.2,24.2 -5.1,31.7c-1.2,5 -1.9,10 -1.6,11.5c0.4,1.5 8.5,9.8 20.7,21.3l20,18.7l-4.6,8.7c-3.8,6.9 -12.6,21.4 -13.9,22.9c-0.2,0.2 -11.7,-3.1 -25.5,-7.2c-13.8,-4.2 -26.5,-7.6 -28.1,-7.6c-2.3,0 -4.8,1.7 -11.3,7.9c-4.6,4.3 -12.2,10.7 -16.9,14.2c-5.1,3.7 -9,7.4 -9.5,8.9c-0.8,2.1 2.5,34.7 5.2,52.7c0.4,3.1 0.2,3.4 -4.2,5.4c-6.7,3 -27.1,9.9 -29.2,9.9c-1.1,0 -6.2,-7 -15.5,-21.3c-7.5,-11.6 -14.7,-22.1 -15.9,-23.2c-2,-1.9 -3.5,-2 -25.8,-2c-16.9,0.1 -24,0.4 -25,1.3c-0.8,0.7 -7.9,11.1 -15.8,23.2c-9.2,14.3 -14.8,22 -15.9,22c-2.4,0 -20.6,-6.2 -28,-9.5c-5.4,-2.5 -6,-3 -5.6,-5.4c1.3,-7.2 5.5,-45.5 5.5,-49.3c0,-5.4 -0.6,-6.1 -10,-13c-4.1,-3 -11.4,-9.2 -16.2,-13.6c-6.8,-6.4 -9.4,-8.2 -11.7,-8.2c-1.6,0 -14,3.4 -27.6,7.5c-13.7,4.1 -25.1,7.5 -25.4,7.5c-0.8,0 -10,-14.6 -15.1,-24.1l-4.1,-7.7l20.1,-18.7c12.2,-11.5 20.3,-19.8 20.7,-21.3c0.3,-1.4 -0.3,-6.4 -1.5,-11.1c-2.4,-10 -3.8,-17.9 -4.7,-27.2c-0.4,-4.4 -1.3,-7.3 -2.5,-8.6c-1,-1.1 -12.7,-6.7 -26,-12.4c-13.3,-5.7 -24.4,-10.9 -24.7,-11.5c-0.6,-1.7 2.4,-21.8 4.5,-29.5l1.7,-6.4l26,-1.4c15.3,-0.8 27.2,-1.8 29,-2.6c2.4,-0.9 4,-3.2 7.8,-10.8c2.6,-5.2 7.4,-13.6 10.7,-18.6c3.3,-5 6.2,-10.2 6.6,-11.5c0.4,-1.8 -2.5,-8.4 -12,-26.9l-12.6,-24.5l6,-5.8c8.5,-8.1 22.2,-18.4 23.5,-17.6c0.5,0.3 9.8,7.2 20.5,15.2c20.9,15.7 22.9,17 25.8,17c1,0 5.9,-1.8 10.9,-3.9c5,-2.2 14.3,-5.6 20.7,-7.6c10.7,-3.3 11.8,-3.9 13.1,-6.8c0.8,-1.8 4,-14.3 7.1,-27.9l5.7,-24.7l3.1,-0.4c5.3,-0.7 25.1,-0.7 29.8,-0.1z"/>
  <path stroke-width="0" stroke="#000" fill="#fff" id="svg_3" d="m246.3,162.09999c-33.6,3.1 -64.5,25.2 -78.9,56.3c-22,47.8 -1.4,105.1 46.1,128.1c38.2,18.6 83.1,10.6 112.2,-19.9c16.4,-17.1 25.1,-35.8 27.2,-58.4c2.6,-28.3 -6.6,-55.1 -25.9,-75.6c-21.4,-22.7 -49.7,-33.4 -80.7,-30.5zm29.2,20c21.8,5.3 41.3,20.9 51.5,41.4c5.9,11.8 8.1,21.7 8.1,35.5c0,19.1 -5.9,36.2 -17.6,50.2c-15.5,18.9 -37,29 -61.5,29c-13.8,0 -23.6,-2.3 -35.5,-8.2c-27.3,-13.7 -43.7,-40.3 -43.7,-71c0,-52.1 47.6,-89.2 98.7,-76.9z"/>
 </g>
</svg>