<svg width="330" height="330" xmlns="http://www.w3.org/2000/svg">

 <g>
  <title>Layer 1</title>
  <g transform="rotate(-180 165.0001983642578,164.9998016357422) " id="svg_1">
   <g id="XMLID_27_">
    <path fill="#0f3510" d="m310.607,154.391l-150,-149.997c-5.857,-5.858 -15.355,-5.858 -21.213,0.001c-5.857,5.858 -5.857,15.355 0,21.213l139.393,139.39l-139.393,139.396c-5.857,5.858 -5.857,15.355 0,21.213c2.929,2.929 6.768,4.393 10.606,4.393s7.678,-1.464 10.607,-4.394l150,-150.003c2.813,-2.813 4.393,-6.628 4.393,-10.606c0,-3.978 -1.58,-7.793 -4.393,-10.606z" id="XMLID_28_"/>
    <path fill="#0f3510" d="m195.001,164.996c0,-3.979 -1.581,-7.794 -4.394,-10.607l-150.001,-149.996c-5.858,-5.858 -15.355,-5.858 -21.213,0.001c-5.857,5.858 -5.857,15.355 0.001,21.213l139.394,139.39l-139.395,139.397c-5.857,5.858 -5.857,15.355 0.001,21.213c2.928,2.929 6.767,4.393 10.606,4.393s7.678,-1.464 10.607,-4.394l150.001,-150.004c2.812,-2.812 4.393,-6.628 4.393,-10.606z" id="XMLID_29_"/>
   </g>
   <g id="svg_2"/>
   <g id="svg_3"/>
   <g id="svg_4"/>
   <g id="svg_5"/>
   <g id="svg_6"/>
   <g id="svg_7"/>
   <g id="svg_8"/>
   <g id="svg_9"/>
   <g id="svg_10"/>
   <g id="svg_11"/>
   <g id="svg_12"/>
   <g id="svg_13"/>
   <g id="svg_14"/>
   <g id="svg_15"/>
   <g id="svg_16"/>
  </g>
 </g>
</svg>