<?xml version="1.0"?>
<svg xmlns="http://www.w3.org/2000/svg" xmlns:xlink="http://www.w3.org/1999/xlink" xmlns:svgjs="http://svgjs.com/svgjs" version="1.1" width="512" height="512" x="0" y="0" viewBox="0 0 512 512" style="enable-background:new 0 0 512 512" xml:space="preserve" class=""><g><g xmlns="http://www.w3.org/2000/svg"><path d="m467 60h-26v-15c0-24.813-20.187-45-45-45s-45 20.187-45 45v15h-50v-15c0-24.813-20.187-45-45-45s-45 20.187-45 45v15h-50v-15c0-24.813-20.187-45-45-45s-45 20.187-45 45v15h-26c-24.813 0-45 20.187-45 45v362c0 24.813 20.187 45 45 45h422c24.813 0 45-20.187 45-45v-362c0-24.813-20.187-45-45-45zm-86-15c0-8.271 6.729-15 15-15s15 6.729 15 15v15h-30zm-140 0c0-8.271 6.729-15 15-15s15 6.729 15 15v15h-30zm-140 0c0-8.271 6.729-15 15-15s15 6.729 15 15v15h-30zm381 422c0 8.271-6.729 15-15 15h-422c-8.271 0-15-6.729-15-15v-265h452zm0-295h-452v-67c0-8.271 6.729-15 15-15h86v15c0 8.271-6.729 15-15 15-8.284 0-15 6.716-15 15s6.716 15 15 15c24.813 0 45-20.187 45-45v-15h110v15c0 8.271-6.729 15-15 15-8.284 0-15 6.716-15 15s6.716 15 15 15c24.813 0 45-20.187 45-45v-15h110v15c0 8.271-6.729 15-15 15-8.284 0-15 6.716-15 15s6.716 15 15 15c24.813 0 45-20.187 45-45v-15h26c8.271 0 15 6.729 15 15z" fill="#ffffff" data-original="#000000" style="" class=""/><path d="m176 457c63.411 0 115-51.589 115-115s-51.589-115-115-115-115 51.589-115 115 51.589 115 115 115zm0-200c46.869 0 85 38.131 85 85s-38.131 85-85 85-85-38.131-85-85 38.131-85 85-85z" fill="#ffffff" data-original="#000000" style="" class=""/><path d="m176 357h40c8.284 0 15-6.716 15-15s-6.716-15-15-15h-25v-35c0-8.284-6.716-15-15-15s-15 6.716-15 15v50c0 8.284 6.716 15 15 15z" fill="#ffffff" data-original="#000000" style="" class=""/><path d="m336 297h100c8.284 0 15-6.716 15-15s-6.716-15-15-15h-100c-8.284 0-15 6.716-15 15s6.716 15 15 15z" fill="#ffffff" data-original="#000000" style="" class=""/><path d="m336 357h100c8.284 0 15-6.716 15-15s-6.716-15-15-15h-100c-8.284 0-15 6.716-15 15s6.716 15 15 15z" fill="#ffffff" data-original="#000000" style="" class=""/><path d="m336 417h100c8.284 0 15-6.716 15-15s-6.716-15-15-15h-100c-8.284 0-15 6.716-15 15s6.716 15 15 15z" fill="#ffffff" data-original="#000000" style="" class=""/></g></g></svg>
